

<svg id="Layer_1" data-name="Layer 1" xmlns="http://www.w3.org/2000/svg" viewBox="0 0 150.49 201.51">
  <defs>
    <style>.cls-1{fill:#fff;}.cls-2{fill:#69c293;}
    </style>
  </defs>
  <title>MWR-C3_logo
  </title>
  <rect class="cls-1" x="25.25" y="132.94" width="22.73" height="2.46"/>
  <rect class="cls-2" x="139.21" y="72.11" width="7.68" height="2.46"/>
  <polygon class="cls-1" points="57.34 168.05 57.34 155.55 44.85 155.55 44.85 137.2 25.09 137.2 25.09 156.96 44.85 156.96 44.85 168.05 57.34 168.05"/>
  <rect class="cls-1" x="11.79" y="161.8" width="13.3" height="13.31"/>
  <rect class="cls-1" x="37.59" y="178.93" width="7.26" height="7.26"/>
  <rect class="cls-1" x="8.96" y="143.05" width="9.68" height="9.68"/>
  <rect class="cls-2" x="78.51" y="153.47" width="11.76" height="11.76"/>
  <rect class="cls-1" x="75.49" y="182.56" width="8.87" height="8.87"/>
  <rect class="cls-1" x="54.52" y="193.85" width="7.66" height="7.66"/>
  <rect class="cls-1" x="60.37" y="171.67" width="7.06" height="7.06"/>
  <rect class="cls-2" x="104.37" y="136.52" width="13.98" height="13.98"/>
  <rect class="cls-2" x="94.96" y="156.92" width="9.41" height="9.41"/>
  <rect class="cls-2" x="113.22" y="169.04" width="5.14" height="5.13"/>
  <rect class="cls-2" x="92.97" y="143.65" width="6.85" height="6.85"/>
  <path class="cls-1" d="M204,221.7v-2.77h-5.53V213.1h11.37V194.67h0l.17-3.38H187.15l.26,16v10.45h-2.5v10.08h2.5v9.27l-18.73.17v-9.82h-4.16v-7.65h0V154.91a11.36,11.36,0,0,1,3.25-8.52,10.69,10.69,0,0,1,7.9-3.31,11.28,11.28,0,0,1,11.25,11.26v15.17h20.23V154.75a30,30,0,0,0-9-21.88,29.58,29.58,0,0,0-21.88-9.09,30.93,30.93,0,0,0-31,31v77.39h-4.88V234h-3.07v1.53h7.07v11.26h-4.76v13.07h-5.13V265h5.13v-4.9H153v-5.52h34.87v15.07h10.59v10.58h12.49V269.64H212V245.46h-8V226.31" transform="translate(-134.52 -123.47)"/>
  <path class="cls-2" d="M212,221.5l1,17.64,1.39.07v19h3.63v8.87h9.41v-8.26h31.38V276h-6v8.84h8.84v-7.7h15v5.71H285V274.5h-4.75V255.72h-9.6V239.21h6.45v-2h3.15V230h-3.15V201.42h-3.38V198h-25.5v-2.45h22.7c-3.74-4.85-6.05-7.14-10.28-9.36a30,30,0,0,0,7.23-6.29,31.76,31.76,0,0,0,7.23-20.86v-5.47q0-12.48-7.44-20.85-8.25-9.28-22-9.29-14.46,0-22.4,9.91-7,8.67-7,22.5v3h19.09v-3.39a18,18,0,0,1,2.17-9.34q2.9-4.71,9.09-4.72,11.14,0,11.14,12.69v3q0,10.2-4.95,15.88-5.37,6.28-16.62,6.28v16.09l-9.15.23H216.6V198h21.5v10.14h17.2v31h-1v-3.76H240.89v3.76h-4.27v-3.13h-4.36V218.63H212v2.87" transform="translate(-134.52 -123.47)"/>
  <rect class="cls-2" x="140.03" y="171.61" width="6.27" height="6.27"/>
  <rect class="cls-2" x="118.92" y="185.87" width="5.42" height="5.42"/>
  <rect class="cls-2" x="129.33" y="163.91" width="4.99" height="4.99"/>
  <rect class="cls-2" x="140.67" y="124.23" width="4.99" height="4.99"/>
</svg>
