
<svg width="94" height="30" viewBox="0 0 94 30" fill="none" xmlns="http://www.w3.org/2000/svg">
<path fill-rule="evenodd" clip-rule="evenodd" d="M89.5444 28.3005C85.9212 30.4364 80.2276 31.5044 72.9813 25.6307L76.6044 21.3589C77.6396 22.2488 80.5382 24.0287 83.8508 24.0287C87.1634 24.0287 87.474 22.4268 87.474 21.3589C87.088 19.7659 85.6976 19.14 83.6176 18.2035C82.9087 17.8843 82.1196 17.529 81.2628 17.0871C75.8733 14.3071 74.0165 11.7474 74.0165 9.07753C74.0165 6.40767 75.0517 0 83.8508 0V5.87369C82.8156 5.87369 80.7452 6.30087 80.7452 8.00958C80.7452 9.68055 82.3292 10.3711 84.0101 11.1039L84.0101 11.1039L84.0103 11.104C84.4779 11.3078 84.953 11.515 85.4036 11.7474C85.7667 11.9347 86.2254 12.1384 86.7405 12.3672C89.1623 13.443 92.8315 15.0728 93.6852 18.1551C94.7204 21.8929 93.1676 26.1646 89.5444 28.3005ZM21.2215 29.3685L30.0207 0.533972H37.267L42.443 16.5531H36.2318L33.6438 5.87369L31.0559 17.0871H33.6438V22.4268H29.5031L27.9503 29.3685H21.2215ZM0 9.6115H5.69357V23.4948H18.1159V29.3685H0V9.6115ZM54.3477 9.07753H48.1366V29.3685H59.0061C65.2173 29.3685 69.3581 25.951 69.3581 20.8249C69.3581 15.6988 65.2173 14.0613 63.1469 13.8833C66.4595 13.8833 67.6328 10.3235 67.8053 8.54355C67.8053 2.56307 63.3194 0.711963 61.0765 0.533972H57.9709V5.87369C59.1787 5.6957 61.5941 5.98049 61.5941 8.54355C61.5941 11.1066 59.5237 11.7474 58.4885 11.7474H54.3477V9.07753ZM54.3478 16.2627V23.6072H59.0061C60.3864 23.6072 63.1469 22.8727 63.1469 19.935C63.1469 16.9972 60.3864 16.2627 59.0061 16.2627H54.3478Z" fill="#a1d1ff"/>
</svg>
